HIERARCHY
ROOT Hips
{
  OFFSET 53.3012 100.663 10.7751
  CHANNELS 6 Xposition Yposition Zposition Zrotation Xrotation Yrotation
  JOINT spine
  {
    OFFSET 0 8.81705 0.507024
    CHANNELS 3 Zrotation Xrotation Yrotation
    JOINT spine1
    {
      OFFSET 0 10.7766 0
      CHANNELS 3 Zrotation Xrotation Yrotation
      JOINT spine2
      {
        OFFSET 0 10.3259 0
        CHANNELS 3 Zrotation Xrotation Yrotation
        JOINT Neck
        {
          OFFSET 0 26.511 1.26395
          CHANNELS 3 Zrotation Xrotation Yrotation
          JOINT Head
          {
            OFFSET 0 8.00966 0
            CHANNELS 3 Zrotation Xrotation Yrotation
            End Site
            {
              OFFSET 0 19.3879 -6.39386
            }
          }
        }
        JOINT RightShoulder
        {
          OFFSET -4.34795 11.1512 -0.605422
          CHANNELS 3 Zrotation Xrotation Yrotation
          JOINT RightArm
          {
            OFFSET 0 14.6258 0
            CHANNELS 3 Zrotation Xrotation Yrotation
            JOINT RightArmRoll
            {
              OFFSET 0 7.3834 0
              CHANNELS 3 Zrotation Xrotation Yrotation
              JOINT RightForeArm
              {
                OFFSET 0 21.5052 0
                CHANNELS 3 Zrotation Xrotation Yrotation
                JOINT RightForeArmRoll
                {
                  OFFSET 0 8.28532 0
                  CHANNELS 3 Zrotation Xrotation Yrotation
                  JOINT RightHand
                  {
                    OFFSET 0 16.6268 0
                    CHANNELS 3 Zrotation Xrotation Yrotation
                    End Site
                    {
                      OFFSET 0 0 0
                    }
                  }
                }
              }
            }
          }
        }
        JOINT LeftShoulder
        {
          OFFSET 4.34795 11.1512 -0.605422
          CHANNELS 3 Zrotation Xrotation Yrotation
          JOINT LeftArm
          {
            OFFSET 0 14.6258 0
            CHANNELS 3 Zrotation Xrotation Yrotation
            JOINT LeftArmRoll
            {
              OFFSET 0 7.3834 0
              CHANNELS 3 Zrotation Xrotation Yrotation
              JOINT LeftForeArm
              {
                OFFSET 0 21.5052 0
                CHANNELS 3 Zrotation Xrotation Yrotation
                JOINT LeftForeArmRoll
                {
                  OFFSET 0 8.28532 0
                  CHANNELS 3 Zrotation Xrotation Yrotation
                  JOINT LeftHand
                  {
                    OFFSET 0 16.6268 0
                    CHANNELS 3 Zrotation Xrotation Yrotation
                    End Site
                    {
                      OFFSET 0 0 0
                    }
                  }
                }
              }
            }
          }
        }
      }
    }
  }
  JOINT RightUpLeg
  {
    OFFSET -7.8151 -1.43309 -1.20217
    CHANNELS 3 Zrotation Xrotation Yrotation
    JOINT RightUpLegRoll
    {
      OFFSET 0 19.4959 0
      CHANNELS 3 Zrotation Xrotation Yrotation
      JOINT RightLeg
      {
        OFFSET 0 -24.1427 0
        CHANNELS 3 Zrotation Xrotation Yrotation
        JOINT RightLegRoll
        {
          OFFSET 0 24.2217 0
          CHANNELS 3 Zrotation Xrotation Yrotation
          JOINT RightFoot
          {
            OFFSET 0 20.1605 0
            CHANNELS 3 Zrotation Xrotation Yrotation
            JOINT RightToeBase
            {
              OFFSET 0 16.8532 0
              CHANNELS 3 Zrotation Xrotation Yrotation
              End Site
              {
                OFFSET 0.00714343 8.16187 -0.940781
              }
            }
          }
        }
      }
    }
  }
  JOINT LeftUpLeg
  {
    OFFSET 7.8151 -1.43309 -1.20217
    CHANNELS 3 Zrotation Xrotation Yrotation
    JOINT LeftUpLegRoll
    {
      OFFSET 0 19.496 0
      CHANNELS 3 Zrotation Xrotation Yrotation
      JOINT LeftLeg
      {
        OFFSET 0 24.1426 0
        CHANNELS 3 Zrotation Xrotation Yrotation
        JOINT LeftLegRoll
        {
          OFFSET 0 24.4456 0
          CHANNELS 3 Zrotation Xrotation Yrotation
          JOINT LeftFoot
          {
            OFFSET 0 19.9366 0
            CHANNELS 3 Zrotation Xrotation Yrotation
            JOINT LeftToeBase
            {
              OFFSET 0 16.8532 0
              CHANNELS 3 Zrotation Xrotation Yrotation
              End Site
              {
                OFFSET -0.0320138 8.16187 -0.940781
              }
            }
          }
        }
      }
    }
  }
}
MOTION
Frames: 10
Frame Time: 0.00208333
52.8232 100.679 11.1506 -0.364458 -2.92819 2.29439 0.21098 -1.96713 -0.0891572 0.407778 0.0681645 -0.198351 0.410244 1.71321 -0.205177 -3.63583 28.8716 2.00312 -0.971379 -7.79692 0.470131 66.4092 -2.01783 -2.02013 106.785 16.5497 13.2083 -2.4541e-005 1.36657e-006 -1.7361e-006 13.4217 0.878287 -0.30607 1.52616e-005 3.06122e-006 -3 8.0289 -4.95145 0.697694 -62.676 -4.12028 2.8606 -109.692 14.18 -4.40389 -2.2756e-007 -3.46618e-008 7.9706e-007 -12.1731 3.72656 0.81561 6.31465e-007 -1.90741e-006 3.00222 -8.02887 -4.95146 -0.697696 177.216 -2.13286 0.133354 180 7.01528e-015 178.844 178.839 6.10095 179.684 -1.24761e-006 -4.95997e-006 0.0768266 -18.8548 68.121 19.6366 8.14952 25.4429 -3.21712 -174.788 -1.3209 1.08707 4.54188e-006 -4.6773e-006 -1.15637 -1.9607 -6.99922 0.174599 -4.09352e-007 -6.66686e-007 -0.11469 19.2962 68.6458 -20.0745 -8.13872 25.2661 3.44405 
52.8245 100.68 11.1528 -0.364118 -2.91733 2.29409 0.210656 -1.97135 -0.089492 0.40903 0.0597253 -0.198999 0.411512 1.70477 -0.205846 -3.65902 28.8992 2.01558 -0.968458 -7.8034 0.47278 66.4104 -1.99947 -2.0106 106.77 16.5065 13.2396 -2.4541e-005 1.36657e-006 -1.7361e-006 13.4036 0.964615 -0.319662 1.52616e-005 3.06122e-006 -3 8.0289 -4.95145 0.697694 -62.7059 -4.10961 2.85673 -109.647 14.1364 -4.44259 -2.2756e-007 -3.46618e-008 7.9706e-007 -12.164 3.78547 0.823311 6.31465e-007 -1.90741e-006 3.00222 -8.02887 -4.95146 -0.697696 177.215 -2.11911 0.133521 180 7.01528e-015 178.844 178.838 6.10162 179.685 -1.24761e-006 -4.95997e-006 0.0768266 -18.8528 68.1187 19.6344 8.14952 25.443 -3.21614 -174.787 -1.30685 1.08532 4.54188e-006 -4.6773e-006 -1.15637 -1.96362 -7.00094 0.17419 -4.09352e-007 -6.66686e-007 -0.11469 19.2947 68.6441 -20.0728 -8.13871 25.266 3.4456 
52.8126 100.672 11.0749 -0.363947 -2.90556 2.29426 0.210302 -1.97582 -0.0899298 0.410326 0.0507777 -0.199851 0.412827 1.69582 -0.20672 -3.68255 28.9283 2.02821 -0.965436 -7.81082 0.475412 66.4108 -1.98097 -2.00094 106.757 16.4656 13.2721 -2.4541e-005 1.36657e-006 -1.7361e-006 13.3847 1.04398 -0.332274 1.52616e-005 3.06122e-006 -3 8.0289 -4.95145 0.697694 -62.7363 -4.09836 2.85257 -109.603 14.0949 -4.48276 -2.2756e-007 -3.46618e-008 7.9706e-007 -12.1535 3.83957 0.830436 6.31465e-007 -1.90741e-006 3.00222 -8.02887 -4.95146 -0.697696 177.215 -2.10442 0.133435 180 7.01528e-015 178.844 178.836 6.10197 179.685 -1.24761e-006 -4.95997e-006 0.0768266 -18.8504 68.1159 19.6319 8.14952 25.443 -3.21504 -174.787 -1.29121 1.08309 4.54188e-006 -4.6773e-006 -1.15637 -1.96695 -7.00323 0.173715 -4.09352e-007 -6.66686e-007 -0.11469 19.2929 68.6421 -20.071 -8.1387 25.2659 3.44731 
52.8151 100.674 11.1034 -0.363894 -2.89315 2.29476 0.209927 -1.98047 -0.0904397 0.411653 0.0414742 -0.200846 0.414176 1.68652 -0.207736 -3.70633 28.9584 2.04096 -0.962342 -7.81891 0.478031 66.4108 -1.9624 -1.99119 106.744 16.4264 13.3054 -2.4541e-005 1.36657e-006 -1.7361e-006 13.365 1.11847 -0.3442 1.52616e-005 3.06122e-006 -3 8.0289 -4.95145 0.697694 -62.7671 -4.08671 2.84821 -109.558 14.055 -4.52394 -2.2756e-007 -3.46618e-008 7.9706e-007 -12.1421 3.89031 0.837158 6.31465e-007 -1.90741e-006 3.00222 -8.02887 -4.95146 -0.697696 177.214 -2.08909 0.133172 180 7.01528e-015 178.844 178.834 6.10214 179.685 -1.24761e-006 -4.95997e-006 0.0768266 -18.8478 68.1128 19.6291 8.14953 25.4431 -3.21387 -174.785 -1.27446 1.08051 4.54188e-006 -4.6773e-006 -1.15637 -1.97056 -7.00593 0.173196 -4.09352e-007 -6.66686e-007 -0.11469 19.2911 68.6401 -20.069 -8.13869 25.2657 3.44914 
52.8211 100.675 11.1263 -0.36391 -2.88039 2.29544 0.20954 -1.98523 -0.0909908 0.412998 0.0319674 -0.201922 0.415543 1.67701 -0.208835 -3.73025 28.9892 2.05379 -0.959206 -7.82736 0.480643 66.4104 -1.94377 -1.98138 106.732 16.3881 13.3392 -2.4541e-005 1.36657e-006 -1.7361e-006 13.345 1.19017 -0.355735 1.52616e-005 3.06122e-006 -3 8.0289 -4.95145 0.697694 -62.798 -4.07482 2.84374 -109.514 14.016 -4.56571 -2.2756e-007 -3.46618e-008 7.9706e-007 -12.1302 3.93913 0.84365 6.31465e-007 -1.90741e-006 3.00222 -8.02887 -4.95146 -0.697696 177.214 -2.07337 0.132808 180 7.01528e-015 178.844 178.833 6.10216 179.685 -1.24761e-006 -4.95997e-006 0.0768266 -18.845 68.1095 19.6261 8.14954 25.4433 -3.21266 -174.784 -1.25707 1.07775 4.54188e-006 -4.6773e-006 -1.15637 -1.97432 -7.00886 0.17265 -4.09352e-007 -6.66686e-007 -0.11469 19.2892 68.638 -20.067 -8.13867 25.2655 3.45103 
52.8089 100.669 11.1045 -0.363943 -2.86753 2.29617 0.20915 -1.99 -0.0915522 0.414347 0.0224098 -0.203018 0.416915 1.66745 -0.209954 -3.75422 29.0201 2.06665 -0.956059 -7.83592 0.483254 66.41 -1.92513 -1.97155 106.72 16.35 13.3731 -2.4541e-005 1.36657e-006 -1.7361e-006 13.3249 1.26117 -0.367173 1.52616e-005 3.06122e-006 -3 8.0289 -4.95145 0.697694 -62.8291 -4.06287 2.83923 -109.47 13.9772 -4.60762 -2.2756e-007 -3.46618e-008 7.9706e-007 -12.1181 3.98746 0.850086 6.31465e-007 -1.90741e-006 3.00222 -8.02887 -4.95146 -0.697696 177.214 -2.05757 0.132419 180 7.01528e-015 178.844 178.831 6.10217 179.685 -1.24761e-006 -4.95997e-006 0.0768266 -18.8422 68.1062 19.623 8.14955 25.4434 -3.21143 -174.782 -1.23952 1.07493 4.54188e-006 -4.6773e-006 -1.15637 -1.97813 -7.01184 0.172098 -4.09352e-007 -6.66686e-007 -0.11469 19.2873 68.6358 -20.0649 -8.13866 25.2653 3.45293 
52.8168 100.669 11.1377 -0.363942 -2.85486 2.29681 0.208766 -1.99473 -0.092093 0.415686 0.0129538 -0.204074 0.418277 1.658 -0.211032 -3.77814 29.0508 2.07948 -0.952932 -7.84428 0.485868 66.4096 -1.90651 -1.96176 106.708 16.3115 13.4068 -2.4541e-005 1.36657e-006 -1.7361e-006 13.305 1.33357 -0.378808 1.52616e-005 3.06122e-006 -3 8.0289 -4.95145 0.697694 -62.86 -4.05104 2.83479 -109.426 13.9379 -4.64921 -2.2756e-007 -3.46618e-008 7.9706e-007 -12.1063 4.03675 0.856639 6.31465e-007 -1.90741e-006 3.00222 -8.02887 -4.95146 -0.697696 177.214 -2.04195 0.13208 180 7.01528e-015 178.844 178.83 6.10223 179.686 -1.24761e-006 -4.95997e-006 0.0768266 -18.8395 68.103 19.6201 8.14955 25.4435 -3.21023 -174.781 -1.22229 1.07222 4.54188e-006 -4.6773e-006 -1.15637 -1.98186 -7.01472 0.171559 -4.09352e-007 -6.66686e-007 -0.11469 19.2854 68.6337 -20.0629 -8.13864 25.2651 3.4548 
52.8236 100.67 11.1296 -0.363856 -2.84264 2.29721 0.208397 -1.99933 -0.0925823 0.417003 0.00375203 -0.205027 0.419615 1.6488 -0.212007 -3.80191 29.0806 2.09223 -0.949855 -7.85217 0.488491 66.4097 -1.88796 -1.95203 106.696 16.2718 13.4398 -2.4541e-005 1.36657e-006 -1.7361e-006 13.2857 1.40945 -0.390935 1.52616e-005 3.06122e-006 -3 8.0289 -4.95145 0.697694 -62.8906 -4.0395 2.83048 -109.382 13.8976 -4.69006 -2.2756e-007 -3.46618e-008 7.9706e-007 -12.0952 4.08845 0.863483 6.31465e-007 -1.90741e-006 3.00222 -8.02887 -4.95146 -0.697696 177.213 -2.0268 0.131868 180 7.01528e-015 178.844 178.828 6.10245 179.686 -1.24761e-006 -4.95997e-006 0.0768266 -18.8369 68.1 19.6173 8.14956 25.4436 -3.20908 -174.78 -1.20586 1.06974 4.54188e-006 -4.6773e-006 -1.15637 -1.98538 -7.0173 0.171052 -4.09352e-007 -6.66686e-007 -0.11469 19.2836 68.6317 -20.061 -8.13863 25.2649 3.4566 
52.8255 100.669 11.1012 -0.363635 -2.83114 2.29724 0.208051 -2.00373 -0.0929891 0.418284 -0.00504304 -0.205818 0.420914 1.64 -0.21282 -3.82543 29.1092 2.10486 -0.946859 -7.85932 0.491128 66.4103 -1.8695 -1.94242 106.682 16.2302 13.4719 -2.4541e-005 1.36657e-006 -1.7361e-006 13.2672 1.4909 -0.40385 1.52616e-005 3.06122e-006 -3 8.0289 -4.95145 0.697694 -62.9209 -4.02843 2.82642 -109.338 13.8555 -4.72971 -2.2756e-007 -3.46618e-008 7.9706e-007 -12.0852 4.144 0.870791 6.31465e-007 -1.90741e-006 3.00222 -8.02887 -4.95146 -0.697696 177.213 -2.01239 0.131858 180 7.01528e-015 178.844 178.826 6.10289 179.686 -1.24761e-006 -4.95997e-006 0.0768266 -18.8347 68.0973 19.6149 8.14956 25.4437 -3.20801 -174.779 -1.1907 1.06766 4.54188e-006 -4.6773e-006 -1.15637 -1.98859 -7.01942 0.170598 -4.09352e-007 -6.66686e-007 -0.11469 19.2819 68.6298 -20.0592 -8.13862 25.2647 3.45826 
52.8218 100.669 11.1078 -0.363227 -2.82064 2.29675 0.207738 -2.00784 -0.0932827 0.419516 -0.0132789 -0.206385 0.422161 1.63176 -0.213407 -3.8486 29.1361 2.11731 -0.943974 -7.86542 0.493786 66.4118 -1.85118 -1.93295 106.668 16.1861 13.5027 -2.4541e-005 1.36657e-006 -1.7361e-006 13.2499 1.58001 -0.417848 1.52616e-005 3.06122e-006 -3 8.0289 -4.95145 0.697694 -62.9506 -4.01799 2.82267 -109.294 13.811 -4.76772 -2.2756e-007 -3.46618e-008 7.9706e-007 -12.0767 4.20484 0.878738 6.31465e-007 -1.90741e-006 3.00222 -8.02887 -4.95146 -0.697696 177.212 -1.99902 0.132126 180 7.01528e-015 178.844 178.824 6.10367 179.686 -1.24761e-006 -4.95997e-006 0.0768266 -18.8328 68.0951 19.6129 8.14956 25.4437 -3.20707 -174.779 -1.17729 1.0661 4.54188e-006 -4.6773e-006 -1.15637 -1.99136 -7.02091 0.170215 -4.09352e-007 -6.66686e-007 -0.11469 19.2804 68.6281 -20.0575 -8.13861 25.2647 3.45974 
